<svg width="74" height="24" fill="none" xmlns="http://www.w3.org/2000/svg"><path d="M74 .878V17.3H0V.88h74z" fill="#FC0"/><path d="M13.013 3.827l-2.364 3.23h12.886c.65 0 .642.248.324.682-.324.44-.865 1.206-1.194 1.653-.167.227-.47.64.532.64h5.27l1.56-2.133c.97-1.322.085-4.072-3.378-4.072H13.013z" fill="#D2002E"/><path d="M9.693 14.35l4.748-6.49h5.893c.652 0 .643.25.325.683-.323.44-.873 1.198-1.203 1.645-.167.227-.469.641.532.641h7.895c-.657.905-2.787 3.52-6.61 3.52H9.692zm27.196-3.521l-2.575 3.52H27.52s2.573-3.52 2.576-3.52h6.792zm10.406-.797H30.68l4.544-6.205h6.79L39.41 7.385h3.032l2.605-3.558h6.79l-4.542 6.205zm-.583.797l-2.576 3.52h-6.79s2.573-3.52 2.575-3.52h6.791zM0 12.217h10.007l-.546.748H0v-.748zm0-1.388h11.024l-.548.747H0v-.747zm0 2.777h8.991l-.544.743H0v-.743zm74-.641h-9.969l.547-.748H74v.748zm0 1.384l-10.982.001.544-.744H74v.743zm-8.406-3.52H74v.747l-8.953.001.547-.748zm-4.352-7.002l-4.543 6.205h-7.196s4.544-6.205 4.547-6.205h7.192zm-12.32 7.002s-.497.683-.738 1.01c-.853 1.16-.1 2.51 2.684 2.51h10.906l2.576-3.52H48.921z" fill="#D2002E"/><path d="M0 19.97h74v.371H0v-.372zm0 1.735h74v.372H0v-.372zm0 1.735h74v.372H0v-.372z" fill="#FC0"/><path d="M24.849 23.812h2.227l.355-.484h-1.657l.93-1.266h1.508l.356-.485h-1.51l.825-1.123h1.657l.356-.485h-2.227l-2.82 3.843zm2.733 0h.683l2.33-1.63-.023 1.63h.718l.005-2.01 2.684-1.832h-.65l-2.136 1.475.023-1.476h-.683l-.02 1.845-2.931 1.998zm7.259-3.358h.484c.353 0 .748.176.392.66a1.675 1.675 0 01-1.294.678h-.564l.982-1.338zm-3.034 3.358h.57l1.126-1.536h.559c.717 0 1.629-.302 2.255-1.156.642-.875.166-1.15-.648-1.15h-1.042l-2.82 3.842zm3.28 0h.57l1.252-1.706h.341c.302 0 .49 0 .392.374l-.368 1.332h.65l.37-1.53c.049-.237.024-.32-.104-.386l.008-.01c.518-.078 1.12-.408 1.463-.876.675-.92.006-1.04-.78-1.04h-.974l-2.82 3.842zm3.034-3.358h.546c.525 0 .636.22.382.567-.27.369-.76.6-1.3.6h-.485l.857-1.167zm.392 3.358h2.227l.355-.484h-1.657l.93-1.266h1.509l.355-.485h-1.51l.825-1.123h1.657l.356-.485h-2.227l-2.82 3.843zm7.79-3.771c-.204-.094-.485-.138-.747-.138-.718 0-1.543.364-2.044 1.047-.877 1.194 1.006.957.375 1.816-.331.452-.916.628-1.24.628-.291 0-.552-.11-.689-.187l-.433.512c.202.082.419.16.698.16.797 0 1.69-.326 2.293-1.146.929-1.266-.905-1.096-.364-1.833.295-.402.752-.512 1.071-.512.296 0 .42.05.629.16l.451-.507zm2.848 0c-.204-.094-.486-.138-.748-.138-.717 0-1.542.364-2.043 1.047-.877 1.194 1.006.957.375 1.816-.331.452-.916.628-1.24.628-.291 0-.552-.11-.69-.187l-.432.512c.202.082.419.16.698.16.797 0 1.69-.326 2.292-1.146.93-1.266-.904-1.096-.363-1.833.295-.402.752-.512 1.07-.512.297 0 .42.05.63.16l.451-.507z" fill="#D2002E"/></svg>