<svg width="67" height="29" fill="none" xmlns="http://www.w3.org/2000/svg"><path fill-rule="evenodd" clip-rule="evenodd" d="M43.453 22.467c-1.243.344-2.863.487-4.25.487-3.615 0-5.986-1.864-5.986-5.278 0-3.242 2.226-5.336 5.465-5.336.723 0 1.504.086 1.966.315V7.95h2.805v14.517zm-2.805-7.402c-.434-.2-1.04-.316-1.735-.316-1.706 0-2.833 1.033-2.833 2.84 0 1.923 1.214 3.013 3.21 3.013.346 0 .896 0 1.358-.115v-5.422zM66.5 22.467c-1.243.344-2.863.487-4.28.487-3.585 0-5.986-1.864-5.986-5.278 0-3.242 2.227-5.336 5.466-5.336.752 0 1.503.086 1.966.315V7.95H66.5v14.517zm-2.834-7.402c-.434-.2-1.012-.316-1.706-.316-1.735 0-2.863 1.033-2.863 2.84 0 1.923 1.244 3.013 3.239 3.013.347 0 .867 0 1.33-.115v-5.422zm-15.788 0c.462-.2 1.127-.258 1.677-.258 1.735 0 2.92.975 2.92 2.725 0 2.066-1.33 3.012-3.094 3.041v2.381h.145c3.643 0 5.812-1.98 5.812-5.508 0-3.213-2.313-5.106-5.726-5.106-1.735 0-3.44.401-4.568.86v13.627h2.834V15.065z" fill="#3F3F42"/><path fill-rule="evenodd" clip-rule="evenodd" d="M12.004.378a.995.995 0 00-.437.097L.603 6.462l12.276 7.16c.113.06.2.21.2.34v10.434c0 .131-.095.28-.21.341l-.663.368a.455.455 0 01-.202.044h-.017a.393.393 0 01-.21-.044l-.664-.368a.417.417 0 01-.201-.341v-9.304a.234.234 0 00-.114-.184L0 8.606v12.341c0 .28.192.613.437.753l11.139 6.573c.122.07.271.105.428.105a.84.84 0 00.429-.105L23.572 21.7a.977.977 0 00.428-.753V8.606l-7.327 4.271a.435.435 0 01-.402 0l-.647-.385a.457.457 0 01-.14-.149.576.576 0 01-.07-.218l-.017-.762c0-.131.078-.28.192-.35l7.808-4.551L12.442.475a.893.893 0 00-.438-.097z" fill="url(#paint0_linear_3021_64)"/><defs><linearGradient id="paint0_linear_3021_64" x1="4.183" y1="24.151" x2="14.381" y2="15.645" gradientUnits="userSpaceOnUse"><stop stop-color="#A80034"/><stop offset="1" stop-color="#DB0031"/></linearGradient></defs></svg>