<svg width="70" height="22" fill="none" xmlns="http://www.w3.org/2000/svg"><path fill-rule="evenodd" clip-rule="evenodd" d="M63.396 21.142l-2.827-3.15-2.8 3.15h-5.893l5.759-6.431-5.76-6.431h6.078l2.854 3.124 2.748-3.124h5.865l-5.733 6.404 5.813 6.458h-6.104zm-22.843 0V.878h11.323v4.518h-6.528V8.28h6.528v4.344h-6.528v3.99h6.528v4.528H40.553z" fill="#FF7A08"/><path fill-rule="evenodd" clip-rule="evenodd" d="M35.779.878v8.294h-.055c-1.057-1.208-2.377-1.628-3.91-1.628-3.165 0-5.518 2.167-6.328 5.006-.932-3.13-3.369-5.064-7.016-5.064-2.962 0-5.27 1.349-6.474 3.514V8.28H5.919V5.394h6.632V.878H.5v20.264h5.419v-8.518h5.431a7.88 7.88 0 00-.278 2.004c0 4.227 3.249 7.193 7.398 7.193 3.489 0 5.787-1.627 7.004-4.594H20.83c-.627.893-1.105 1.157-2.36 1.157-1.456 0-2.712-1.262-2.712-2.759h9.48c.413 3.355 3.018 6.253 6.629 6.253a4.63 4.63 0 003.857-2.047h.055v1.312h4.774V.878H35.78zm-19.87 11.807c.301-1.287 1.306-2.128 2.56-2.128 1.382 0 2.335.816 2.586 2.128H15.91zm16.97 5.373c-1.76 0-2.854-1.63-2.854-3.331 0-1.82.95-3.568 2.854-3.568 1.974 0 2.759 1.749 2.759 3.568 0 1.724-.833 3.33-2.759 3.33z" fill="#462895"/></svg>