<svg width="259" height="28" fill="none" xmlns="http://www.w3.org/2000/svg"><path d="M123.515 27.298h-5.357l-12.131-18.33v18.33h-5.357V.55h5.357l12.131 18.368V.55h5.357v26.748zM95.397.584v26.71H90.04V15.93H78.598v11.365H73.24V.584h5.357v10.982H90.04V.585h5.357zm-52.83 13.319c0-2.627.587-4.974 1.76-7.04 1.2-2.093 2.82-3.713 4.86-4.86C51.254.828 53.562.242 56.114.242c2.984 0 5.6.765 7.844 2.295 2.245 1.53 3.814 3.648 4.707 6.352h-6.161c-.612-1.275-1.48-2.232-2.602-2.87-1.097-.637-2.373-.956-3.827-.956-1.556 0-2.946.37-4.17 1.11-1.2.714-2.144 1.734-2.833 3.06-.663 1.327-.995 2.884-.995 4.67 0 1.76.332 3.316.995 4.668.69 1.326 1.633 2.36 2.832 3.1 1.225.714 2.615 1.071 4.171 1.071 1.454 0 2.73-.319 3.827-.957 1.122-.663 1.99-1.632 2.602-2.908h6.16c-.892 2.73-2.46 4.86-4.706 6.39-2.22 1.506-4.834 2.258-7.844 2.258-2.552 0-4.86-.574-6.927-1.722-2.04-1.173-3.66-2.793-4.86-4.86-1.173-2.066-1.76-4.413-1.76-7.04zM28.859 4.912v6.697h8.992v4.248H28.86v7.079H39v4.362H23.502V.55H39v4.362H28.86zM19.593.584v4.324h-7.118v22.386H7.118V4.908H0V.584h19.593z" fill="#fff"/><g clip-path="url(#clip0_3001_41)" fill-rule="evenodd" clip-rule="evenodd" fill="#B15FFF"><path d="M146.165 8.18A6.998 6.998 0 00142.276 7V0a14 14 0 11-14 14h7a7.002 7.002 0 0011.95 4.95 7 7 0 00-1.061-10.77z"/><path d="M135.276 0a6.996 6.996 0 01-4.321 6.467 7.001 7.001 0 01-2.679.533v7a14.001 14.001 0 0014-14h-7z"/></g><path d="M251.281 27.304l-9.72-11.901v11.9h-5.357V.594h5.357v11.978l9.72-11.977h6.467l-11.021 13.24 11.327 13.47h-6.773zm-25.816 0l-5.893-10.409h-2.526v10.409h-5.357V.594h10.025c2.067 0 3.827.37 5.281 1.11 1.454.714 2.539 1.696 3.253 2.946.74 1.225 1.11 2.602 1.11 4.133a8.04 8.04 0 01-1.531 4.783c-1.02 1.403-2.538 2.373-4.554 2.908l6.391 10.83h-6.199zm-8.419-14.427h4.477c1.454 0 2.538-.344 3.253-1.033.714-.714 1.071-1.696 1.071-2.946 0-1.225-.357-2.169-1.071-2.832-.715-.689-1.799-1.033-3.253-1.033h-4.477v7.844zm-16.371 9.335h-10.638l-1.761 5.09h-5.625l9.605-26.75h6.238l9.605 26.75h-5.664l-1.76-5.09zm-1.454-4.286l-3.865-11.174-3.865 11.174h7.73zM180.493 8.86a8.194 8.194 0 01-1.033 4.017c-.663 1.25-1.722 2.258-3.176 3.023-1.429.766-3.24 1.148-5.434 1.148h-4.477v10.256h-5.357V.594h9.834c2.066 0 3.827.357 5.281 1.071 1.454.715 2.538 1.697 3.253 2.947.739 1.25 1.109 2.666 1.109 4.247zm-9.873 3.864c1.48 0 2.577-.331 3.291-.995.715-.688 1.072-1.645 1.072-2.87 0-2.602-1.454-3.903-4.363-3.903h-4.247v7.768h4.247z" fill="#fff"/><defs><clipPath id="clip0_3001_41"><path fill="#fff" transform="translate(128.276)" d="M0 0h28v28H0z"/></clipPath></defs></svg>