<svg width="75" height="28" fill="none" xmlns="http://www.w3.org/2000/svg"><g clip-path="url(#clip0_1_1085)"><path fill-rule="evenodd" clip-rule="evenodd" d="M17.986 1.738v.056a.968.968 0 01-.294.566c-.26.252-.6.445-.925.591-3.32 1.493-6.545 2.944-9.679 4.35a4.526 4.526 0 01-.537.201 9.484 9.484 0 01-2.554.408 3.496 3.496 0 01-.943-.098 1.246 1.246 0 01-.42-.192c-.214-.154-.33-.405-.235-.655a.993.993 0 01.182-.305.022.022 0 000-.028L1.067 4.82a.013.013 0 01-.003-.012.013.013 0 01.008-.01l1.669-.749a.042.042 0 01.03-.001l2.51.92a.04.04 0 00.03-.001L7.72 3.864a.013.013 0 00.004-.021L3.918.124A.007.007 0 013.916.12V.116a.007.007 0 01.006-.004A2555.6 2555.6 0 006.605 0a.232.232 0 01.113.023l4.574 2.216a.036.036 0 00.03 0 940.03 940.03 0 012.706-1.215c1.058-.473 2.319-.68 3.378-.081.11.062.209.133.298.212.176.158.27.353.282.583zM29.361 16.41v.494a11.204 11.204 0 01-3.853 8.148c-1.956 1.71-4.272 2.692-6.947 2.948h-2.058c-1.916-.174-3.651-.731-5.207-1.67a11.761 11.761 0 01-3.404-3.063c-1.395-1.878-2.13-3.995-2.205-6.35v-.52c.106-2.779 1.096-5.196 2.968-7.252.182-.2.389-.392.596-.585.092-.085.185-.17.275-.257.213-.205.457-.387.697-.567l.214-.162a8.12 8.12 0 01.716-.472l.19-.116c.228-.142.456-.266.682-.374l.19-.092c.252-.122.498-.241.762-.342.326-.125.636-.234.929-.329.143-.046.4-.116.774-.21a7.85 7.85 0 01.751-.154l.213-.033a8.56 8.56 0 011.056-.118c.385-.027.769-.054 1.159-.03l.304.017c.235.012.47.023.712.051a12.11 12.11 0 014.337 1.338c.178.094.462.26.853.497.238.145.459.31.678.474l.179.132c.197.145.388.302.575.474l.148.134c.2.182.4.363.59.566 1.975 2.088 3.017 4.563 3.126 7.423zM14.528 9.487a39.246 39.246 0 00-.246.541l.001.004.002.002.001.001.002.001h.002c.825.112 1.651.182 2.48.211.01 0 .014-.004.014-.013V6.9l-.001-.002a.012.012 0 00-.005-.005.013.013 0 00-.012 0c-.53.242-.976.663-1.33 1.116a7.54 7.54 0 00-.908 1.48zm6.075.18a7.782 7.782 0 00-1.02-1.696c-.351-.442-.773-.827-1.294-1.077a.018.018 0 00-.023.007.016.016 0 00-.002.008v3.313c0 .017.009.025.026.024.814-.029 1.63-.099 2.446-.21.024-.002.031-.015.021-.036-.05-.105-.102-.217-.154-.334zm-7.797.078c.328-.869.769-1.683 1.322-2.443.019-.026.013-.034-.019-.023-.564.194-1.114.434-1.649.718a9.496 9.496 0 00-.567.336l-.195.121a7.43 7.43 0 00-.689.498c-.09.07-.178.14-.269.207a.012.012 0 00-.004.005.013.013 0 000 .007l.002.005a.012.012 0 00.006.004l.217.072c.371.122.75.248 1.129.34.224.055.45.112.68.171a.033.033 0 00.022-.002.03.03 0 00.014-.016zm8.447-2.35a6.57 6.57 0 00-.319-.11c-.024-.007-.03 0-.015.02.545.763.992 1.571 1.32 2.44.003.006.007.01.013.014a.027.027 0 00.018.002 15.951 15.951 0 002.038-.586.01.01 0 00.002-.005.01.01 0 000-.005.01.01 0 00-.003-.004 10.612 10.612 0 00-3.054-1.766zm3.994 2.944c-.802.325-1.637.586-2.507.782a.026.026 0 00-.015.011.024.024 0 00-.004.019l.096.394a17 17 0 01.244 1.096l.108.607c.055.305.09.62.125.931l.021.185c.048.417.07.832.09 1.248l.018.325c0 .005.002.01.006.013a.02.02 0 00.014.005h4.38c.003 0 .005 0 .007-.002a.016.016 0 00.009-.009v-.006c-.177-2.13-.974-4.013-2.39-5.65-.01-.012-.023-.016-.039-.01a2.9 2.9 0 00-.163.06zm-17.26 2.476a9.543 9.543 0 00-.783 3.129c0 .007.003.01.01.01h4.383a.034.034 0 00.023-.008.031.031 0 00.01-.022c.037-1.27.18-2.482.428-3.636a25.605 25.605 0 01.272-1.146.025.025 0 00-.004-.01.028.028 0 00-.017-.012 15.852 15.852 0 01-2.662-.846c-.015-.006-.027-.003-.037.008a9.769 9.769 0 00-1.623 2.533zm5.122 3.12c0 .013.006.02.02.02h3.621c.01 0 .018-.004.024-.01a.032.032 0 00.01-.023V11.68a.01.01 0 00-.003-.008.013.013 0 00-.008-.004 23.99 23.99 0 01-2.955-.259c-.005 0-.009 0-.012.003a.016.016 0 00-.007.008 18.41 18.41 0 00-.69 4.515zm8.32-3.816a207.56 207.56 0 00-.172-.69c-.004-.016-.014-.022-.03-.02a23.9 23.9 0 01-2.94.259c-.016 0-.023.008-.023.022v4.232a.03.03 0 00.01.023c.006.006.015.01.024.01h3.632l.002-.001a.013.013 0 00.006-.007l.001-.004a17.913 17.913 0 00-.51-3.824zM9.958 23.046a15.963 15.963 0 012.383-.769h.001l.002-.002a.02.02 0 00.008-.013 215.562 215.562 0 00-.232-.947c-.063-.25-.109-.507-.154-.76a30.973 30.973 0 00-.054-.294 10.669 10.669 0 01-.118-.783l-.031-.264a13.008 13.008 0 01-.082-.814c-.018-.331-.037-.666-.054-1.004a.019.019 0 00-.006-.013.02.02 0 00-.014-.006h-4.37c-.017 0-.025.009-.024.025a9.67 9.67 0 002.47 5.729c.011.014.026.017.043.01l.232-.095zm3.848-1.106a.04.04 0 00.017.022.043.043 0 00.029.006c.983-.16 1.951-.258 2.905-.293a.03.03 0 00.02-.009.028.028 0 00.008-.02v-4.235a.032.032 0 00-.01-.024.036.036 0 00-.025-.01h-3.616c-.016 0-.024.008-.023.023.043 1.536.275 3.05.695 4.54zm7.447-.074a.01.01 0 00.008-.001.01.01 0 00.004-.006c.406-1.451.63-2.937.675-4.458 0-.016-.007-.024-.024-.024h-3.627c-.016 0-.024.008-.024.023v4.231a.018.018 0 00.006.013.02.02 0 00.009.005h.004c.976.008 1.966.08 2.97.217zm4.109 1.052c.044.018.09.032.135.042.014.003.025 0 .034-.012 1.367-1.614 2.14-3.467 2.317-5.56a.01.01 0 00-.003-.008.011.011 0 00-.003-.002h-4.396a.025.025 0 00-.018.006.023.023 0 00-.007.016c-.013.405-.035.79-.065 1.155a20.128 20.128 0 01-.613 3.558c0 .004.002.007.004.01a.03.03 0 00.02.014c.901.19 1.766.45 2.594.781zm-4.584.362a.56.56 0 01.01-.023c.005-.009.002-.014-.009-.015l-.06-.006-.063-.007-.047-.005h-.003a21.473 21.473 0 00-1.497-.126 121.3 121.3 0 01-.816-.034c-.019 0-.028.008-.028.025v3.336c0 .017.008.022.024.014a3.5 3.5 0 001.072-.82c.619-.684 1.055-1.48 1.417-2.339zm-4.019 3.157c.018.009.026.003.026-.015V23.12c0-.018-.009-.027-.027-.026-.845.045-1.658.127-2.44.246-.011.002-.015.008-.01.018.3.704.67 1.392 1.155 1.999.356.446.773.824 1.296 1.08zm5.509-2.923c-.33.89-.782 1.74-1.34 2.507-.022.03-.015.039.021.026a10.764 10.764 0 003.463-1.959v-.01a.012.012 0 00-.003-.003.014.014 0 00-.006-.004l-.366-.114-.003-.001c-.32-.102-.65-.206-.972-.28-.258-.06-.51-.12-.757-.181a.033.033 0 00-.022.002.03.03 0 00-.015.017zm-8.155 2.531c.034.012.04.003.02-.025a10.313 10.313 0 01-1.3-2.38.018.018 0 00-.017-.005 15.783 15.783 0 00-1.982.6v.001a.01.01 0 00-.002.004.01.01 0 000 .006l.004.004.56.413c.31.23.681.454 1.002.631a10.14 10.14 0 001.715.751zM1.337 11.692c.127-.635.383-1.23.768-1.786.04-.057.077-.112.112-.166a.57.57 0 00.032-.613c-.098-.198-.373-.237-.582-.229-.151.006-.3.125-.367.242-.028.05-.062.094-.095.137-.043.055-.086.11-.116.18a1.337 1.337 0 01-.104.18 1.037 1.037 0 00-.116.212c-.03.08-.072.15-.114.222-.05.085-.1.17-.126.267a2.185 2.185 0 01-.188.47.73.73 0 00-.067.191 17.46 17.46 0 00-.326 1.997.656.656 0 000 .167c.029.167.038.327.029.48a1.56 1.56 0 00.033.363c.016.094.032.188.035.286.003.084.021.166.04.248.013.052.025.105.033.159.015.095.035.195.06.299.06.243.117.458.175.645.094.305.235.683.424 1.135.03.073.067.143.103.213.037.07.074.141.104.215.049.118.107.229.173.332.084.129.157.262.23.395.095.173.19.346.31.515.435.612.885 1.204 1.35 1.776.198.242.423.468.644.69l.163.164c.142.145.292.188.45.13.158-.056.252-.1.283-.135.228-.252.238-.505.031-.76-.16-.197-.336-.384-.51-.57-.19-.204-.377-.405-.542-.614l-.003-.005c-.355-.45-.713-.906-1.015-1.392a11.014 11.014 0 01-.914-1.742 4.182 4.182 0 01-.115-.32 5.272 5.272 0 00-.096-.273 3.365 3.365 0 01-.14-.446 8.808 8.808 0 01-.194-1.127 5.382 5.382 0 01-.013-1.085c.031-.32.085-.669.16-1.047zm37.042-.13V12.8h-4.73V7.138h4.62v1.237H35.3v.955h2.617v1.197H35.3v1.035h3.08zm4.595 1.238l-1.22-1.755L40.55 12.8h-1.9l2.145-2.863-2.053-2.8h1.877l1.178 1.635 1.161-1.634h1.801l-2.053 2.734 2.188 2.928h-1.919zm4.997-5.662c.533 0 .996.086 1.389.259.393.167.696.41.909.728.213.312.32.682.32 1.108 0 .426-.107.795-.32 1.108a2.078 2.078 0 01-.91.728c-.392.167-.855.25-1.388.25h-1.026V12.8h-1.667V7.138h2.693zm-.1 2.92c.342 0 .6-.07.773-.21.175-.146.262-.351.262-.615s-.087-.47-.262-.615c-.173-.146-.431-.218-.774-.218h-.925v1.658h.925zm6.105 1.238h-.909V12.8h-1.666V7.138h2.693c.533 0 .996.086 1.389.259.392.167.695.41.908.728.214.312.32.682.32 1.108 0 .41-.1.768-.303 1.076a1.98 1.98 0 01-.85.711l1.271 1.78h-1.784l-1.069-1.505zm1.052-2.063c0-.264-.087-.47-.26-.615-.175-.146-.433-.218-.775-.218h-.926v1.658h.926c.342 0 .6-.07.774-.21.174-.146.261-.351.261-.615zm7.332 2.33V12.8h-4.73V7.138h4.62v1.237h-2.97v.955h2.617v1.197H59.28v1.035h3.08zm2.995 1.35c-.477 0-.94-.056-1.389-.17-.448-.113-.813-.264-1.094-.453l.547-1.18c.264.167.57.301.918.404.347.102.69.154 1.026.154.64 0 .96-.154.96-.461 0-.162-.093-.28-.278-.356-.18-.081-.472-.165-.875-.251a9.192 9.192 0 01-1.111-.291 1.91 1.91 0 01-.766-.51c-.213-.232-.32-.545-.32-.938 0-.345.099-.655.295-.93.196-.28.488-.502.875-.664.393-.162.872-.242 1.44-.242a5.1 5.1 0 011.144.129c.376.08.707.202.992.364l-.513 1.189c-.56-.291-1.105-.437-1.633-.437-.33 0-.572.049-.723.146-.151.092-.227.213-.227.364 0 .15.09.264.269.34.18.075.468.153.867.234.448.092.819.192 1.11.3.298.102.553.27.766.5.22.227.329.537.329.931 0 .34-.098.647-.295.922-.196.275-.49.496-.883.664-.393.161-.87.242-1.431.242zm5.449 0c-.477 0-.94-.056-1.389-.17-.449-.113-.813-.264-1.094-.453l.547-1.18c.264.167.57.301.918.404.347.102.69.154 1.026.154.64 0 .96-.154.96-.461 0-.162-.093-.28-.279-.356-.179-.081-.47-.165-.874-.251a9.19 9.19 0 01-1.111-.291 1.91 1.91 0 01-.766-.51c-.213-.232-.32-.545-.32-.938 0-.345.098-.655.294-.93.197-.28.489-.502.876-.664.393-.162.872-.242 1.439-.242.387 0 .769.043 1.145.129.376.08.706.202.992.364l-.513 1.189c-.56-.291-1.105-.437-1.633-.437-.33 0-.572.049-.723.146-.152.092-.227.213-.227.364 0 .15.09.264.269.34.18.075.468.153.867.234.448.092.819.192 1.11.3.298.102.553.27.766.5.219.227.328.537.328.931 0 .34-.098.647-.294.922-.197.275-.491.496-.884.664-.392.161-.87.242-1.43.242zm-36.43 8.069c.414.13.844.194 1.287.194.5 0 .92-.07 1.262-.21.342-.146.598-.34.766-.583.168-.248.252-.52.252-.817 0-.356-.098-.639-.294-.85a1.75 1.75 0 00-.69-.468 8.48 8.48 0 00-1.069-.308 9.518 9.518 0 01-.816-.21 1.509 1.509 0 01-.497-.283.62.62 0 01-.202-.477c0-.265.118-.48.354-.647.24-.168.6-.251 1.077-.251.27 0 .544.04.825.121.28.076.544.189.79.34l.278-.647a2.786 2.786 0 00-.866-.372 4.118 4.118 0 00-1.027-.13c-.5 0-.917.073-1.254.219-.337.145-.59.34-.757.582a1.434 1.434 0 00-.245.817c0 .361.096.65.287.866.196.21.429.366.698.469a8.94 8.94 0 001.077.307c.354.08.626.154.817.218.196.065.359.16.488.284a.595.595 0 01.202.469c0 .264-.12.477-.362.639-.241.156-.606.234-1.094.234-.37 0-.732-.06-1.086-.178a2.667 2.667 0 01-.858-.477l-.311.631c.235.21.558.383.967.518zm9.863.13v-5.663h-.842v2.435h-3.383v-2.435h-.841v5.662h.841v-2.524h3.383v2.524h.842zm2.605-5.663H46v5.662h.842V15.45zm5.862.526c-.438-.35-1.038-.526-1.801-.526h-2.297v5.662h.841v-1.715h1.456c.763 0 1.363-.175 1.8-.526.439-.35.657-.833.657-1.447 0-.615-.218-1.098-.656-1.448zm-.606 2.394c-.28.216-.688.323-1.22.323h-1.43v-2.54h1.43c.532 0 .94.111 1.22.332.28.216.42.529.42.939 0 .41-.14.725-.42.946zm6.597-2.394c-.437-.35-1.038-.526-1.801-.526h-2.297v5.662h.841v-1.715h1.456c.763 0 1.364-.175 1.801-.526.437-.35.657-.833.657-1.447 0-.615-.22-1.098-.657-1.448zm-.606 2.394c-.28.216-.687.323-1.22.323h-1.43v-2.54h1.43c.533 0 .94.111 1.22.332.28.216.421.529.421.939 0 .41-.14.725-.42.946zm3.34-2.92h-.842v5.662h.842V15.45zm6.83 5.662V15.45h-.841v4.222l-3.535-4.222h-.69v5.662h.842V16.89l3.534 4.222h.69zm6.653-2.863h-.808v1.844c-.393.243-.853.364-1.38.364-.444 0-.844-.094-1.204-.283a2.142 2.142 0 01-.833-.777 2.117 2.117 0 01-.303-1.116 2.09 2.09 0 011.136-1.893c.36-.189.763-.283 1.212-.283.668 0 1.237.219 1.708.655l.522-.501a2.578 2.578 0 00-.984-.647 3.449 3.449 0 00-1.28-.227c-.6 0-1.141.124-1.624.372a2.845 2.845 0 00-1.127 1.036c-.27.442-.404.938-.404 1.488s.134 1.046.404 1.488c.275.437.65.782 1.127 1.036a3.432 3.432 0 001.608.372c.42 0 .824-.062 1.211-.186a3.176 3.176 0 001.019-.534v-2.208z" fill="#000"/></g><defs><clipPath id="clip0_1_1085"><path fill="#fff" d="M0 0h75v28H0z"/></clipPath></defs></svg>