<svg width="74" height="14" fill="none" xmlns="http://www.w3.org/2000/svg"><g clip-path="url(#clip0_1_1088)"><path d="M14 0H0v14h14V0zm15 0H15v14h14V0zm15 0H30v14h14V0zm15 0H45v14h14V0zm15 0H60v14h14V0z" fill="#00B67A"/><path d="M7.013 9.432l2.134-.54.892 2.742-3.026-2.202zm4.912-3.543H8.168l-1.155-3.53-1.155 3.53H2.101l3.04 2.187-1.154 3.53 3.04-2.188L8.9 8.076l3.026-2.187zm10.291 3.543l2.134-.54.892 2.742-3.026-2.202zm4.912-3.543H23.37l-1.155-3.53-1.155 3.53h-3.757l3.04 2.187-1.154 3.53 3.04-2.188 1.872-1.342 3.026-2.187zM37.42 9.432l2.133-.54.892 2.742-3.026-2.202zm4.91-3.543h-3.756l-1.155-3.53-1.155 3.53h-3.757l3.041 2.187-1.155 3.53 3.04-2.188 1.872-1.342 3.026-2.187zm10.292 3.543l2.135-.54.891 2.742-3.026-2.202zm4.912-3.543h-3.757l-1.155-3.53-1.155 3.53h-3.756l3.04 2.187-1.155 3.53 3.04-2.188 1.872-1.342 3.026-2.187zm10.291 3.543l2.135-.54.891 2.742-3.026-2.202zm4.912-3.543H68.98l-1.155-3.53-1.154 3.53h-3.757l3.04 2.187-1.155 3.53 3.041-2.188 1.871-1.342 3.026-2.187z" fill="#D5D5D5"/></g><defs><clipPath id="clip0_1_1088"><path fill="#fff" d="M0 0h74v14H0z"/></clipPath></defs></svg>