<svg width="44" height="12" fill="none" xmlns="http://www.w3.org/2000/svg"><path d="M11.562 4.251h4.451v.92h-1.752v5.191H13.3v-5.19h-1.746l.008-.921zm4.26 1.687h.822v.855h.015a1.303 1.303 0 01.425-.66 1.18 1.18 0 01.352-.228.938.938 0 01.389-.09c.103 0 .176.009.213.009a.58.58 0 00.117.016v.937a1.346 1.346 0 00-.19-.033c-.067-.008-.125-.016-.191-.016a.932.932 0 00-.418.098 1.076 1.076 0 00-.345.285 1.6 1.6 0 00-.235.473 2.197 2.197 0 00-.088.652v2.102h-.88l.015-4.4zm6.367 4.424h-.866v-.619h-.014c-.11.228-.272.4-.484.538a1.183 1.183 0 01-.653.204c-.52 0-.902-.14-1.137-.432-.235-.286-.352-.726-.352-1.304V5.938h.88V8.65c0 .391.066.668.206.823.132.163.322.245.564.245a.989.989 0 00.462-.098.812.812 0 00.301-.253 1.04 1.04 0 00.169-.383c.036-.147.051-.31.051-.48V5.937h.88v4.424h-.007zm1.496-1.418c.03.286.125.481.293.603.169.114.374.172.609.172.08 0 .176-.009.279-.025.102-.016.205-.04.293-.081a.521.521 0 00.228-.18.45.45 0 00.08-.301.462.462 0 00-.124-.31 1.026 1.026 0 00-.294-.195 2.344 2.344 0 00-.41-.123c-.155-.032-.309-.073-.47-.114a4.681 4.681 0 01-.477-.146 1.324 1.324 0 01-.41-.237.996.996 0 01-.287-.374 1.28 1.28 0 01-.11-.563c0-.244.052-.44.162-.603.103-.163.242-.293.403-.39.162-.099.345-.172.543-.213.198-.04.389-.057.565-.057.205 0 .403.025.586.074.184.049.36.122.507.236.154.106.278.253.373.424.103.17.162.383.191.627H25.3c-.044-.236-.14-.391-.287-.473a1.082 1.082 0 00-.52-.122c-.059 0-.14.008-.22.017a1.189 1.189 0 00-.242.065.571.571 0 00-.191.138.346.346 0 00-.08.237c0 .122.036.211.11.285.073.073.168.13.293.187.117.05.256.09.41.122.154.033.316.074.477.114.162.041.316.09.47.147.154.057.293.13.41.236.118.098.22.22.294.367.073.147.11.334.11.546 0 .26-.052.48-.162.668-.11.18-.25.334-.418.448a1.962 1.962 0 01-.572.253 2.78 2.78 0 01-.623.082 2.38 2.38 0 01-.697-.098 1.7 1.7 0 01-.557-.286 1.342 1.342 0 01-.367-.48 1.712 1.712 0 01-.147-.685h.888v.008h.007zm2.897-3.006h.667V4.6h.88v1.33h.793v.725h-.793v2.363c0 .106.008.187.015.269a.61.61 0 00.052.187.29.29 0 00.124.114c.059.025.132.04.235.04.058 0 .125 0 .183-.007a1.48 1.48 0 00.184-.033v.758c-.096.016-.191.024-.287.033-.095.016-.183.016-.286.016-.234 0-.418-.025-.557-.073a.787.787 0 01-.33-.212.79.79 0 01-.161-.35 3.076 3.076 0 01-.052-.49V6.663h-.667V5.92v.017zm2.956 0h.828v.603h.015a1.15 1.15 0 01.513-.554c.22-.115.455-.172.72-.172.314 0 .586.057.82.188.235.122.426.285.58.505a2.2 2.2 0 01.345.75 3.685 3.685 0 01.014 1.776c-.073.277-.176.53-.315.742a1.63 1.63 0 01-.535.513c-.22.13-.47.196-.763.196-.125 0-.257-.017-.382-.041a1.503 1.503 0 01-.366-.123 1.298 1.298 0 01-.323-.22 1.208 1.208 0 01-.25-.31h-.014V12h-.88V5.938h-.007zm3.073 2.216a2.17 2.17 0 00-.074-.579 1.553 1.553 0 00-.212-.497 1.23 1.23 0 00-.345-.35.865.865 0 00-.477-.13c-.367 0-.645.138-.836.423-.183.286-.279.669-.279 1.141 0 .228.022.432.074.62.051.187.117.35.22.488.095.139.212.245.352.326a.91.91 0 00.477.123.9.9 0 00.506-.139c.139-.09.249-.212.344-.35a1.52 1.52 0 00.19-.497c.038-.196.06-.383.06-.579zm1.547-3.903h.88v.92h-.88v-.92zm0 1.687h.88v4.424h-.88V5.938zm1.665-1.687h.88v6.111h-.88V4.251zm3.564 6.234c-.315 0-.601-.058-.85-.18a1.939 1.939 0 01-.631-.48 2.156 2.156 0 01-.389-.742 3.19 3.19 0 01-.14-.937c0-.334.045-.644.14-.929.088-.285.22-.53.389-.742.169-.203.381-.366.63-.48.25-.114.536-.18.851-.18a1.902 1.902 0 011.481.66c.17.204.302.457.39.742.088.285.139.595.139.929 0 .342-.044.652-.14.937-.095.285-.22.53-.388.741a1.768 1.768 0 01-.63.481c-.25.114-.529.18-.852.18zm0-.775a.938.938 0 00.506-.138c.147-.09.257-.212.352-.359.096-.146.162-.317.206-.497a2.47 2.47 0 000-1.132 1.542 1.542 0 00-.206-.497 1.164 1.164 0 00-.352-.35.953.953 0 00-.506-.14.935.935 0 00-.506.14 1.175 1.175 0 00-.352.35 1.54 1.54 0 00-.205.497 2.452 2.452 0 000 1.132c.044.188.11.35.205.497.096.147.213.27.352.359a.886.886 0 00.506.138zm2.274-3.772h.667V4.6h.88v1.33h.793v.725h-.792v2.363c0 .106.007.187.014.269a.63.63 0 00.052.187.29.29 0 00.124.114c.059.025.132.04.235.04.059 0 .124 0 .183-.007a1.48 1.48 0 00.184-.033v.758c-.096.016-.191.024-.286.033-.096.016-.184.016-.287.016-.234 0-.418-.025-.557-.073a.786.786 0 01-.33-.212.79.79 0 01-.161-.35 3.077 3.077 0 01-.052-.49V6.663h-.667V5.92v.017z" fill="#000"/><path d="M10.539 4.253H6.512L5.272 0 4.027 4.253 0 4.245l3.256 2.632-1.247 4.254 3.256-2.632 3.257 2.632-1.24-4.254 3.257-2.624z" fill="#00B67A"/><path d="M7.557 7.836l-.278-.961-2.01 1.621 2.288-.66z" fill="#005128"/></svg>