<svg width="30" height="36" fill="none" xmlns="http://www.w3.org/2000/svg"><path d="M15 35.506c.294-.149 7.95-3.5 10.378-5.51 2.503-2.084 3.828-5.062 3.828-8.636V4.607l-.221-.074c-6.11-3.35-13.69-3.127-14.059-3.127-.294 0-7.875-.223-13.984 3.127l-.148.074v16.827c0 3.574 1.325 6.552 3.828 8.637 2.429 2.01 10.084 5.36 10.378 5.435z" fill="#341B14"/><path d="M15 35.878s-8.096-3.573-10.599-5.584C1.751 28.061.5 25.008.5 21.51V4.086C6.904.586 15 .885 15 .885s8.096-.298 14.5 3.201v17.348c0 3.5-1.251 6.552-3.901 8.786C23.096 32.305 15 35.878 15 35.878zM1.678 21.508c0 3.277 1.177 5.957 3.459 7.818 2.06 1.713 8.17 4.468 9.863 5.212 1.693-.744 7.876-3.574 9.863-5.212 2.282-1.861 3.46-4.616 3.46-7.817V4.384c-8.539-.819-18.696-.372-26.645 7.073V21.51z" fill="#FFB406"/><path d="M23.17 19.051c1.104.67 1.546 1.117 1.62 1.936 0 .894-.59 1.415-1.546 1.415-.81 0-1.767-.447-2.43-1.043v2.383c.81.447 1.767.819 2.798.819 2.502 0 3.68-1.787 3.68-3.425.073-1.489-.368-2.68-2.503-3.946-.957-.596-1.693-.968-1.693-1.861 0-.894.81-1.266 1.473-1.266.883 0 1.766.521 2.281 1.042v-2.233c-.441-.373-1.398-.894-2.797-.82-1.693.075-3.46 1.266-3.46 3.351.075 1.415.516 2.457 2.577 3.648zm-8.685 5.361c.22.075.589.149 1.177.149 2.871 0 4.49-2.606 4.49-6.329 0-3.797-1.693-6.105-4.71-6.105-1.399 0-2.503.298-3.46.893v16.827h2.503v-5.435zm0-10.126c.22-.074.589-.223.883-.223 1.472 0 2.06 1.191 2.06 4.095 0 2.83-.735 4.17-2.207 4.17-.368 0-.663-.075-.81-.15v-7.892h.074zM6.756 24.561c1.546 0 2.87-.372 3.828-1.042V12.276H8.008v9.753c-.295.224-.663.298-1.178.298-1.178 0-1.325-1.117-1.325-1.787v-8.264H2.93v8.116c0 2.754 1.325 4.169 3.827 4.169z" fill="#FFB406"/></svg>